<?xml version="1.0" encoding="UTF-8"?>
<svg width="118px" height="22px" viewBox="0 0 118 22" version="1.1" xmlns="http://www.w3.org/2000/svg" xmlns:xlink="http://www.w3.org/1999/xlink">
    <!-- Generator: Sketch 50.2 (55047) - http://www.bohemiancoding.com/sketch -->
    <title>Group 6</title>
    <desc>Created with Sketch.</desc>
    <defs></defs>
    <g id="Layout" stroke="none" stroke-width="1" fill="none" fill-rule="evenodd">
        <g id="Onboarding-Copy-2" transform="translate(-129.000000, -50.000000)" fill="#05464F">
            <g id="Group-6" transform="translate(129.000000, 50.000000)">
                <path d="M97.5714286,14.1555875 C97.5714286,17.1012911 96.4150943,19.8774167 94.3047348,22 L92.0158674,20.1651277 C93.6799573,18.5569946 94.5962976,16.422979 94.5962976,14.1555875 C94.5962976,11.8805745 93.674007,9.74084289 92,8.13270976 L94.1024259,6.11111111 C96.3397244,8.26036962 97.5714286,11.1165208 97.5714286,14.1555875" id="Fill-1"></path>
                <path d="M113.666667,1.47221716 C112.1297,4.710337 109.215705,7.33436987 105.37914,8.90719801 C103.266787,9.77499139 101.000346,10.2712252 98.7026983,10.3888889 C98.4179304,9.40930553 98.0395402,8.46761708 97.5714286,7.57519201 C103.547654,7.59603421 109.106479,4.65349464 111.136913,0 C111.907152,0.591160557 112.755799,1.0856891 113.666667,1.47221716" id="Fill-4"></path>
                <path d="M113.047619,20.5251995 C112.163418,20.912356 111.341698,21.4076885 110.59382,22 C108.815951,17.8037171 104.262411,14.9949347 99.1389691,14.4939087 C99.112462,13.5127327 99.0007535,12.5486371 98.8095238,11.6111111 C100.941451,11.7553459 103.041192,12.2468828 105.002717,13.0762327 C108.726963,14.6535158 111.555648,17.281815 113.047619,20.5251995" id="Fill-6"></path>
                <path d="M118,19.1164242 C116.993571,19.1164242 115.981572,19.2565725 114.98647,19.5387378 C114.965858,19.5443437 114.947475,19.5497628 114.926864,19.5555556 C111.595807,14.147699 111.595807,7.24100298 114.926864,1.83333333 C114.947475,1.83893927 114.965858,1.8445452 114.98647,1.85015113 C115.981572,2.13231642 116.993571,2.27246474 118,2.27246474 C114.282527,7.23913433 114.282527,14.1495677 118,19.1164242" id="Fill-8"></path>
                <path d="M7.20842029,19.220625 C9.45937681,19.220625 10.5848551,18.253125 10.5848551,16.56 C10.5848551,14.866875 9.45937681,13.899375 7.20842029,13.899375 L2.81369565,13.899375 L2.81369565,19.220625 L7.20842029,19.220625 Z M6.75286957,11.5075 C9.00382609,11.5075 10.1293043,10.6475 10.1293043,8.900625 C10.1293043,7.15375 9.00382609,6.29375 6.75286957,6.29375 L2.81369565,6.29375 L2.81369565,11.5075 L6.75286957,11.5075 Z M0,3.875 L6.96724638,3.875 C11.2011884,3.875 13.1037826,5.7025 13.1037826,8.739375 C13.1037826,10.59375 12.0051014,12.233125 9.94172464,12.61 L9.94172464,12.636875 C12.2194783,13.0125 13.5593333,14.705625 13.5593333,16.694375 C13.5593333,19.73125 11.2815797,21.6125 7.07443478,21.6125 L0,21.6125 L0,3.875 Z" id="Fill-1"></path>
                <path d="M23.5851884,16.87 L23.5851884,15.2575 L20.6643043,15.84875 C18.8421014,16.198125 17.931,16.81625 17.931,17.89125 C17.931,18.885625 18.6813188,19.423125 19.9407826,19.423125 C21.7361884,19.423125 23.5851884,18.4825 23.5851884,16.87 M28.4354638,19.3425 L28.2478841,21.2775 C27.8191304,21.465625 27.2563913,21.599375 26.5864638,21.599375 C25.1126232,21.599375 24.1479275,21.089375 23.8531594,19.61125 C23.0224493,20.87375 21.3074348,21.599375 19.3244493,21.599375 C16.8055217,21.599375 14.9565217,20.4175 14.9565217,18.079375 C14.9565217,16.01 16.6715362,14.478125 20.1819565,13.86 L23.5851884,13.26875 L23.5851884,12.543125 C23.5851884,10.930625 22.5936957,9.8825 20.8518841,9.8825 C19.1904638,9.8825 17.9577971,10.608125 17.395058,12.300625 L15.1715217,11.11875 C15.814029,8.995625 17.8774058,7.625 20.7982899,7.625 C24.1479275,7.625 26.4524783,9.156875 26.4524783,12.381875 L26.4524783,18.455625 C26.4524783,19.126875 26.7204493,19.45 27.443971,19.45 C27.7923333,19.45 28.1406957,19.423125 28.4354638,19.3425" id="Fill-4"></path>
                <path d="M37.6773478,7.89375 L37.2217971,10.5275 C36.8466377,10.3125 36.2571014,10.178125 35.5335797,10.178125 C33.9257536,10.178125 32.1571449,11.46875 32.1571449,14.209375 L32.1571449,21.33125 L29.2898551,21.33125 L29.2898551,7.89375 L31.7283913,7.89375 L31.9695652,10.3125 C32.693087,8.565625 34.1133333,7.625 36.2035072,7.625 C36.7394493,7.625 37.3021884,7.705625 37.6773478,7.89375" id="Fill-6"></path>
                <polygon id="Fill-8" points="44.1578841 15.16875 41.504971 17.91 41.504971 21.48375 38.6376812 21.48375 38.6376812 2 41.504971 2 41.504971 14.63125 47.9094783 8.04625 51.285913 8.04625 46.1676667 13.314375 51.6074783 21.48375 48.2846377 21.48375"></polygon>
                <path d="M54.5651304,13.48375 L61.8003478,13.48375 C61.5055797,11.22625 60.2461159,9.909375 58.2631304,9.909375 C56.1729565,9.909375 54.8866957,11.1725 54.5651304,13.48375 M64.3728696,15.686875 L54.5651304,15.686875 C54.8866957,18.0525 56.306942,19.315625 58.4507101,19.315625 C60.2193188,19.315625 61.3983913,18.670625 61.8271449,17.488125 L64.212087,18.4825 C63.2473913,20.47125 61.3983913,21.599375 58.4507101,21.599375 C54.2167681,21.599375 51.7246377,18.9925 51.7246377,14.6125 C51.7246377,10.231875 54.0827826,7.625 58.2631304,7.625 C62.2826957,7.625 64.480058,10.3125 64.480058,14.209375 C64.480058,14.72 64.4264638,15.338125 64.3728696,15.686875" id="Fill-11"></path>
                <path d="M74.4454638,7.89375 L73.989913,10.5275 C73.6147536,10.3125 73.0252174,10.178125 72.3016957,10.178125 C70.6938696,10.178125 68.9252609,11.46875 68.9252609,14.209375 L68.9252609,21.33125 L66.057971,21.33125 L66.057971,7.89375 L68.4965072,7.89375 L68.7376812,10.3125 C69.4612029,8.565625 70.8814493,7.625 72.9716232,7.625 C73.5075652,7.625 74.0703043,7.705625 74.4454638,7.89375" id="Fill-13"></path>
                <path d="M74.1594203,18.778125 L76.0888116,17.111875 C76.7855362,18.724375 78.365942,19.3425 80.2417391,19.3425 C82.1443333,19.3425 83.1096522,18.64375 83.1096522,17.73 C83.1096522,16.896875 82.3325362,16.413125 80.0011884,15.95625 C76.0084203,15.20375 74.614971,14.04875 74.614971,11.790625 C74.614971,9.61375 76.6515507,7.625 80.2417391,7.625 C83.2168406,7.625 84.905058,8.5925 85.8697536,10.6625 L83.7789565,12.220625 C83.1632464,10.58125 82.0103478,9.883125 80.2685362,9.883125 C78.6077391,9.883125 77.4822609,10.689375 77.4822609,11.5225 C77.4822609,12.489375 78.2593768,13 80.7783043,13.456875 C84.6102899,14.155625 85.9763188,15.31125 85.9763188,17.541875 C85.9763188,19.906875 83.8325507,21.6 80.1345507,21.6 C77.5352319,21.6 75.2848986,20.74 74.1594203,18.778125" id="Fill-15"></path>
            </g>
        </g>
    </g>
</svg>