<?xml version="1.0" encoding="UTF-8"?>
<svg width="17px" height="15px" viewBox="0 0 17 15" version="1.1" xmlns="http://www.w3.org/2000/svg" xmlns:xlink="http://www.w3.org/1999/xlink">
    <!-- Generator: Sketch 50.2 (55047) - http://www.bohemiancoding.com/sketch -->
    <title>NavBarIconSettings</title>
    <desc>Created with Sketch.</desc>
    <defs></defs>
    <g id="NavBarIconSettings" stroke="none" stroke-width="1" fill="none" fill-rule="evenodd" stroke-linecap="round" stroke-linejoin="round">
        <g id="Group-2" stroke="#9CA8AA">
            <circle id="Oval-3" fill="#FFFFFF" transform="translate(15.500000, 1.500000) scale(-1, 1) translate(-15.500000, -1.500000) " cx="15.5" cy="1.5" r="1.5"></circle>
            <path d="M0.5,1.5 L11.5,1.5" id="Line-2"></path>
        </g>
        <g id="Group" transform="translate(8.500000, 13.500000) scale(-1, 1) translate(-8.500000, -13.500000) translate(0.000000, 12.000000)" stroke="#9CA8AA">
            <circle id="Oval-3-Copy-2" fill="#FFFFFF" transform="translate(1.500000, 1.500000) scale(-1, 1) translate(-1.500000, -1.500000) " cx="1.5" cy="1.5" r="1.5"></circle>
            <path d="M5.5,1.5 L16.5,1.5" id="Line-3" transform="translate(11.000000, 1.500000) scale(-1, 1) translate(-11.000000, -1.500000) "></path>
        </g>
        <g id="Group-Copy" transform="translate(0.000000, 6.000000)" stroke="#9CA8AA">
            <circle id="Oval-3-Copy-2" fill="#FFFFFF" transform="translate(1.500000, 1.500000) scale(-1, 1) translate(-1.500000, -1.500000) " cx="1.5" cy="1.5" r="1.5"></circle>
            <path d="M5.5,1.5 L16.5,1.5" id="Line-3" transform="translate(11.000000, 1.500000) scale(-1, 1) translate(-11.000000, -1.500000) "></path>
        </g>
    </g>
</svg>